<svg xmlns:dc="http://purl.org/dc/elements/1.1/" xmlns:cc="http://creativecommons.org/ns#" xmlns:rdf="http://www.w3.org/1999/02/22-rdf-syntax-ns#" xmlns:svg="http://www.w3.org/2000/svg" xmlns="http://www.w3.org/2000/svg" xmlns:sodipodi="http://sodipodi.sourceforge.net/DTD/sodipodi-0.dtd" xmlns:inkscape="http://www.inkscape.org/namespaces/inkscape" version="1.1" id="svg15" sodipodi:docname="the-sandbox-logo.svg" inkscape:version="0.92.4 (5da689c313, 2019-01-14)" inkscape:export-filename="C:\Users\suitedoalex\sites\the-sandbox-logo-0.png" inkscape:export-xdpi="561.73712" inkscape:export-ydpi="561.73712" viewBox="78.04 286.66 543.91 126.69">
  <metadata id="metadata21">
    <rdf:RDF>
      <cc:Work rdf:about="">
        <dc:format>image/svg+xml</dc:format>
        <dc:type rdf:resource="http://purl.org/dc/dcmitype/StillImage"/>
        <dc:title/>
      </cc:Work>
    </rdf:RDF>
  </metadata>
  <defs id="defs19"/>
  <sodipodi:namedview pagecolor="#ffffff" bordercolor="#666666" borderopacity="1" objecttolerance="10" gridtolerance="10" guidetolerance="10" inkscape:pageopacity="0" inkscape:pageshadow="2" inkscape:window-width="1600" inkscape:window-height="837" id="namedview17" showgrid="false" inkscape:zoom="0.53547297" inkscape:cx="-29.978542" inkscape:cy="279.54108" inkscape:window-x="-8" inkscape:window-y="-8" inkscape:window-maximized="1" inkscape:current-layer="svg15"/>
  <g id="Logo_sandbox" data-name="Logo sandbox" transform="matrix(3.6750763,0,0,3.6750763,19.242876,257.25577)" inkscape:export-filename="C:\Users\suitedoalex\sites\the-sandbox-logo-4.png" inkscape:export-xdpi="70.59967" inkscape:export-ydpi="70.59967">
    <path id="Trazado_1" data-name="Trazado 1" d="m 1497.262,1153.805 h 2.22 v -0.55 l -0.558,-0.555 h -2.768 l -0.557,0.555 v 4.412 l 0.557,0.55 h 2.768 l 0.558,-0.55 v -0.55 h -2.22 v -1.105 h 2.22 v -1.1 h -2.22 z" transform="translate(-1405.815,-1139.768)" style="fill:#1c1c1a;fill-opacity:1" inkscape:connector-curvature="0"/>
    <rect id="Rectángulo_2" data-name="Rectángulo 2" width="3.1329999" height="3.1199999" transform="translate(90.16,8)" x="0" y="0" style="fill:#3bbff0"/>
    <path id="Trazado_2" data-name="Trazado 2" d="m 1379.125,1152.7 v 2.211 h -1.663 v -2.211 h -1.105 l -0.557,0.555 v 4.412 l 0.557,0.55 h 1.105 v -2.206 h 1.663 v 2.206 h 1.11 l 0.552,-0.55 v -4.412 l -0.552,-0.555 z" transform="translate(-1291.926,-1139.768)" style="fill:#1c1c1a;fill-opacity:1" inkscape:connector-curvature="0"/>
    <path id="Trazado_3" data-name="Trazado 3" d="m 1256.557,1152.7 -0.558,0.555 v 0.55 h 1.663 v 3.861 l 0.557,0.55 h 0.553 l 0.552,-0.55 v -3.861 h 1.662 v -0.55 l -0.553,-0.555 z" transform="translate(-1178.035,-1139.768)" style="fill:#1c1c1a;fill-opacity:1" inkscape:connector-curvature="0"/>
    <path id="Trazado_5" data-name="Trazado 5" d="m 1257.9,1303.7 v 22.073 h 15.516 l 2.215,-2.206 v -17.656 l -2.215,-2.206 H 1257.9 Z m 6.65,4.417 h 4.435 v 13.245 h -4.435 z" transform="translate(-1179.842,-1283.35)" style="fill:#1c1c1a;fill-opacity:1" inkscape:connector-curvature="0"/>
    <path id="Trazado_6" data-name="Trazado 6" d="m 1662.2,1303.7 v 22.073 h 15.516 l 2.215,-2.206 v -6.623 l -2.215,-2.206 2.215,-2.206 v -6.622 l -2.215,-2.206 H 1662.2 Z m 6.65,13.245 h 4.435 v 4.417 h -4.435 v -4.417 m 0,-4.417 v -4.412 h 4.435 v 4.412 z" transform="translate(-1564.196,-1283.35)" style="fill:#1c1c1a;fill-opacity:1" inkscape:connector-curvature="0"/>
    <path id="Trazado_7" data-name="Trazado 7" d="m 2068.815,1303.7 -2.215,2.206 v 17.656 l 2.215,2.206 h 13.3 l 2.215,-2.206 v -17.656 l -2.215,-2.206 z m 4.43,4.417 h 4.435 v 13.245 h -4.435 z" transform="translate(-1948.645,-1283.35)" style="fill:#1c1c1a;fill-opacity:1" inkscape:connector-curvature="0"/>
    <path id="Trazado_11" data-name="Trazado 11" d="M 0,0 5.908,0.012 5.92,5.92 0.012,5.908 Z" transform="rotate(-45,115.70387,-172.16511)" inkscape:connector-curvature="0" style="fill:#3bbff0"/>
    <path id="Trazado_8" data-name="Trazado 8" d="m 2481.98,1303.7 v 6.622 l -2.215,2.206 -2.215,-2.206 v -6.622 h -4.436 l -2.215,2.211 v 6.617 l 2.215,2.211 -2.215,2.206 v 6.622 l 2.215,2.206 h 4.436 v -6.622 l 2.215,-2.206 2.215,2.206 v 6.622 h 4.436 l 2.215,-2.206 v -6.622 l -2.215,-2.206 2.215,-2.211 v -6.617 l -2.215,-2.211 z" transform="translate(-2332.999,-1283.35)" style="fill:#1c1c1a;fill-opacity:1" inkscape:connector-curvature="0"/>
    <path id="Trazado_9" data-name="Trazado 9" d="m 822,1303.7 v 6.622 l -6.65,-6.622 h -4.43 l -2.215,2.211 v 17.656 l 2.215,2.206 h 4.43 v -13.245 l 6.65,6.622 v 6.622 h 4.435 l 2.215,-2.206 v -17.656 l -2.215,-2.211 z" transform="translate(-752.803,-1283.35)" style="fill:#1c1c1a;fill-opacity:1" inkscape:connector-curvature="0"/>
    <path id="Trazado_10" data-name="Trazado 10" d="m 419.911,1304.7 h -13.3 l -2.215,2.206 v 17.656 l 2.215,2.206 h 4.435 v -8.828 h 4.43 v 8.833 h 4.43 l 2.215,-2.206 v -17.656 z m -6.65,9.639 -2.832,-2.82 2.832,-2.82 2.832,2.82 z" transform="translate(-368.449,-1284.301)" style="fill:#1c1c1a;fill-opacity:1" inkscape:connector-curvature="0"/>
    <path id="Trazado_6331" data-name="Trazado 6331" d="M 2.215,1303.7 0,1305.911 v 8.828 l 2.215,2.206 h 8.865 v 4.411 H 6.65 v -2.206 H 0 v 4.417 l 2.215,2.206 h 13.3 l 2.215,-2.206 v -8.828 l -2.215,-2.211 H 6.65 v -4.412 h 4.43 v 2.206 h 6.65 v -4.411 l -2.215,-2.211 z" transform="translate(16,-1283.35)" style="fill:#1c1c1a;fill-opacity:1" inkscape:connector-curvature="0"/>
  </g>
</svg>